<svg version="1.1" id="Layer_1" xmlns="http://www.w3.org/2000/svg" xmlns:xlink="http://www.w3.org/1999/xlink" x="0px" y="0px"
	 viewBox="0 0 34 50" style="enable-background:new 0 0 34 50;" xml:space="preserve">
<g>
	<path d="M10.7,39.9c0-1.4,0-2.9,0-4.3c0-0.7,0.2-0.8,0.9-0.9c1.1-0.1,2.1-0.6,2.6-1.7c0.7-1.6,1.4-3.1,2-4.7c0.2-0.5,0.4-1,0.9-1.2
		c0.5-0.3,0.6-0.2,0.6,0.3c0,1.6,0,3.2,0,4.8c0,0.2,0,0.3,0,0.5c0,0.4,0.2,0.5,0.6,0.5c2,0,4,0,5.9,0c0.3,0,0.7,0,1,0.1
		c1.6,0.3,2.2,2.1,1.1,3.4c-0.2,0.3-0.3,0.4-0.1,0.7c0.4,0.7,0.3,1.4-0.2,2.1c-0.3,0.3-0.4,0.6-0.2,1c0.4,0.9,0.1,2.2-0.8,2.6
		c-0.3,0.1-0.4,0.3-0.3,0.6c0.3,1.4-0.4,2.5-1.9,2.6c-2,0.1-4,0.2-5.9-0.1c-0.8-0.1-1.7-0.4-2.5-0.7c-1-0.3-1.9-0.5-2.9-0.5
		c-0.7,0-0.8-0.1-0.8-0.8C10.7,42.7,10.7,41.3,10.7,39.9z"/>
	<path d="M20.3,47c0.2,0,0.5,0,0.7,0c0.3,0,0.8-0.2,1,0.2c0.2,0.5,0.1,1,0,1.5c-0.1,0.2-0.3,0.3-0.5,0.3c-0.8,0-1.6,0-2.3,0
		c-0.4,0-0.7-0.3-0.7-0.7c-0.1-1.2-0.1-1.3,1.2-1.3C19.8,47,20,47,20.3,47z"/>
	<path d="M10,35.5c0-0.6-0.2-0.8-0.8-0.8c-2.4,0-4.7,0-7.1,0c-0.4,0-0.7,0.1-0.8,0.6c0,2.9,0,5.8,0,8.7c0,0.9,0.1,1,0.7,1
		c2.5,0,4.9,0,7.4,0c0.5,0,0.7-0.3,0.7-0.7C10,41.4,10,38.4,10,35.5z M7.2,38.3c-0.6,0-1.1-0.4-1.1-1.1c0-0.6,0.5-1.1,1-1.1
		c0.6,0,1.1,0.5,1.1,1.1C8.2,37.8,7.7,38.3,7.2,38.3z"/>
	<g>
		<path d="M18.3,10.6c0,0.5,0.5,0.8,1.3,1V9.5C18.8,9.6,18.3,10,18.3,10.6z"/>
		<path d="M21.3,14.9v2.4c0.9-0.2,1.4-0.7,1.4-1.3C22.6,15.5,22.1,15.2,21.3,14.9z"/>
		<path d="M30.2,6C27.5,2.5,23.9,0.8,19.4,1c-3.1,0.2-5.7,1.3-7.9,3.5C9,7,7.7,10,7.8,13.6c0,3.4,1.2,6.2,3.5,8.6
			c1.8,1.9,4,3,6.6,3.5c0.4,0.1,0.6,0.3,0.6,0.7c0,0.9,0,1.8,0,2.7c0,0,0,0,0,0c0,0.9,0,1.8,0,2.7c0,0.4,0.2,0.6,0.6,0.6
			c0.8,0,1.5,0,2.3,0c0.7,0,0.8,0,0.8-0.8c0-1.7,0-3.4,0-5.1c0-0.5,0.2-0.7,0.7-0.8c1.3-0.2,2.5-0.7,3.6-1.3
			c3.9-2.3,6.1-5.7,6.4-10.2C32.9,11.2,32.1,8.4,30.2,6z M21.3,19.7V21h0c0,0.2-0.1,0.3-0.3,0.3h-1.1c-0.2,0-0.3-0.1-0.3-0.3v-1.4
			c-1.9-0.2-3.3-0.9-4.3-1.9l0,0c-0.1-0.1-0.1-0.1-0.1-0.2c0-0.1,0-0.1,0.1-0.2l0,0l1-1.5l0,0c0-0.1,0.1-0.2,0.2-0.2
			c0.1,0,0.1,0,0.2,0.1l0,0c0,0,0,0,0,0c0,0,0,0,0,0c0.7,0.7,1.7,1.3,2.9,1.5v-2.8c-1.9-0.5-3.9-1.2-3.9-3.6c0-1.8,1.5-3.4,3.9-3.7
			V5.8c0-0.2,0.1-0.3,0.3-0.3H21c0.2,0,0.3,0.1,0.3,0.3h0v1.4C22.7,7.4,24,7.9,25,8.8C25,8.9,25.1,9,25.1,9c0,0.1,0,0.1-0.1,0.2l0,0
			L24,10.7l0,0c-0.1,0.1-0.1,0.1-0.2,0.1c-0.1,0-0.1,0-0.2-0.1l0,0c-0.7-0.6-1.5-1-2.3-1.2v2.5c1.9,0.5,4,1.2,4,3.7
			C25.3,17.8,24,19.4,21.3,19.7z"/>
	</g>
</g>
</svg>
