<?xml version="1.0" encoding="utf-8"?>
<!-- Generator: Adobe Illustrator 19.0.0, SVG Export Plug-In . SVG Version: 6.00 Build 0)  -->
<svg version="1.1" id="Layer_1" xmlns="http://www.w3.org/2000/svg" xmlns:xlink="http://www.w3.org/1999/xlink" x="0px" y="0px"
	 viewBox="-140 254 330 285" style="enable-background:new -140 254 330 285;" xml:space="preserve">
<style type="text/css">
	.st0{fill:#E7EAF3;}
	.st1{opacity:0.7;}
	.st2{opacity:0.7;fill:url(#SVGID_1_);enable-background:new    ;}
	.st3{fill:#DE4437;}
	.st4{fill:#FFFFFF;}
	.st5{fill:#377DFF;}
	.st6{opacity:0.5;fill:#F8FAFD;enable-background:new    ;}
	.st7{fill:#8C98A4;}
	.st8{fill:#BDC5D1;}
	.st9{opacity:0.7;fill:#377DFF;enable-background:new    ;}
</style>
<g>
	<path class="st0" d="M181.9,375.9H-5.2V539h187.1V375.9z"/>
	<g class="st1">
		
			<linearGradient id="SVGID_1_" gradientUnits="userSpaceOnUse" x1="43.7973" y1="370.147" x2="43.7973" y2="325.647" gradientTransform="matrix(1 0 0 1 0 2)">
			<stop  offset="0" style="stop-color:#808080;stop-opacity:0.25"/>
			<stop  offset="0.54" style="stop-color:#808080;stop-opacity:0.12"/>
			<stop  offset="1" style="stop-color:#808080;stop-opacity:0.1"/>
		</linearGradient>
		<path class="st2" d="M55.1,327.7H32.5v44.5h22.6V327.7z"/>
	</g>
	<path class="st3" d="M54.4,328.2H33.1v43.9h21.3C54.4,372.1,54.4,328.2,54.4,328.2z"/>
	<path class="st0" d="M157,537.1H20.4V370l68.8-1.6L157,370L157,537.1L157,537.1z"/>
	<path class="st4" d="M155.4,537.1H22.5V370l66.4-47.2l66.5,47.2V537.1z"/>
	<path class="st5" d="M105.6,481H72.1v56.1h33.5V481z"/>
	<path class="st6" d="M119.6,395H58.1v38.3h61.5V395z"/>
	<path class="st7" d="M123.4,430.1H54.5v6.7h68.9C123.4,436.8,123.4,430.1,123.4,430.1z"/>
	<path class="st8" d="M119.6,395H58.1v15.3h61.5V395z"/>
	<g class="st1">
		<path class="st9" d="M164.3,384.2l-75.1-58.3l-72.9,58.3l-5.7-7.2L89,314.4l80.8,62.5L164.3,384.2z"/>
	</g>
	<path class="st5" d="M164.3,384.7l-75.1-58l-72.9,58l-5.7-7.1L89,314.9l80.8,62.7L164.3,384.7z"/>
	<path class="st4" d="M100.7,511.4c1.3,0,2.4-1.1,2.4-2.4s-1.1-2.4-2.4-2.4s-2.4,1.1-2.4,2.4S99.4,511.4,100.7,511.4z"/>
</g>
<g>
	<path class="st8" d="M-91.3,497.5c0-6,0-12.6,0-18.7c0-3.1,0.9-3.4,4-4c4.7-0.4,9.1-2.6,11.3-7.5c3.1-6.9,6-13.5,8.8-20.4
		c0.9-2.1,1.8-4.4,4-5.1c2.1-1.3,2.6-0.9,2.6,1.3c0,6.9,0,14,0,20.9c0,0.9,0,1.3,0,2.1c0,1.8,0.9,2.1,2.6,2.1c8.8,0,17.4,0,25.7,0
		c1.3,0,3.1,0,4.4,0.4c6.9,1.3,9.6,9.1,4.7,14.9c-0.9,1.3-1.3,1.8-0.4,3.1c1.8,3.1,1.3,6-0.9,9.1c-1.3,1.3-1.8,2.6-0.9,4.4
		c1.8,4,0.4,9.6-3.4,11.3c-1.3,0.4-1.8,1.3-1.3,2.6c1.3,6-1.8,10.9-8.2,11.3c-8.8,0.4-17.4,0.9-25.7-0.4c-3.4-0.4-7.5-1.8-10.9-3.1
		c-4.4-1.3-8.2-2.1-12.6-2.1c-3.1,0-3.4-0.4-3.4-3.4C-91.3,509.7-91.3,503.6-91.3,497.5z"/>
	<path class="st5" d="M-49.4,528.4c0.9,0,2.1,0,3.1,0c1.3,0,3.4-0.9,4.4,0.9c0.9,2.1,0.4,4.4,0,6.5c-0.4,0.9-1.3,1.3-2.1,1.3
		c-3.4,0-6.9,0-10,0c-1.8,0-3.1-1.3-3.1-3.1c-0.4-5.1-0.4-5.7,5.1-5.7C-51.6,528.4-50.7,528.4-49.4,528.4z"/>
	<path class="st8" d="M-94.2,478.4c0-2.6-0.9-3.4-3.4-3.4c-10.4,0-20.4,0-30.9,0c-1.8,0-3.1,0.4-3.4,2.6c0,12.6,0,25.1,0,37.9
		c0,4,0.4,4.4,3.1,4.4c10.9,0,21.3,0,32.2,0c2.1,0,3.1-1.3,3.1-3.1C-94.2,504-94.2,491.1-94.2,478.4z M-106.5,490.6
		c-2.6,0-4.7-1.8-4.7-4.7c0-2.6,2.1-4.7,4.4-4.7c2.6,0,4.7,2.1,4.7,4.7S-104.2,490.6-106.5,490.6z"/>
	<g>
		<path class="st5" d="M-58.1,370c0,2.1,2.1,3.4,5.7,4.4v-9.1C-56,365.8-58.1,367.4-58.1,370z"/>
		<path class="st5" d="M-45.1,388.7v10.4c4-0.9,6-3.1,6-5.7C-39.4,391.4-41.6,390-45.1,388.7z"/>
		<path class="st5" d="M-6.3,350c-11.8-15.3-27.5-22.6-47.1-21.8c-13.5,0.9-24.9,5.7-34.3,15.3c-10.9,10.9-16.6,24-16,39.7
			c0,14.9,5.1,27.1,15.3,37.4c7.8,8.2,17.4,13.1,28.8,15.3c1.8,0.4,2.6,1.3,2.6,3.1c0,4,0,7.8,0,11.8l0,0c0,4,0,7.8,0,11.8
			c0,1.8,0.9,2.6,2.6,2.6c3.4,0,6.5,0,10,0c3.1,0,3.4,0,3.4-3.4c0-7.5,0-14.9,0-22.2c0-2.1,0.9-3.1,3.1-3.4
			c5.7-0.9,10.9-3.1,15.6-5.7c16.9-10,26.5-24.9,27.8-44.4C5.3,372.5,1.9,360.3-6.3,350z M-45.1,409.6v5.7l0,0
			c0,0.9-0.4,1.3-1.3,1.3h-4.7c-0.9,0-1.3-0.4-1.3-1.3v-6c-8.2-0.9-14.3-4-18.7-8.2l0,0c-0.4-0.4-0.4-0.4-0.4-0.9
			c0-0.3,0-0.4,0.4-0.9l0,0l4.4-6.5l0,0c0-0.4,0.4-0.9,0.9-0.9c0.4,0,0.4,0,0.9,0.4l0,0l0,0l0,0c3.1,3.1,7.5,5.7,12.6,6.5v-12.2
			c-8.2-2.1-16.9-5.1-16.9-15.6c0-7.8,6.5-14.9,16.9-16v-5.7c0-0.9,0.4-1.3,1.3-1.3h4.7c0.9,0,1.3,0.4,1.3,1.3l0,0v6
			c6,0.9,11.8,3.1,16,6.9c0,0.4,0.4,0.9,0.4,0.9c0,0.4,0,0.4-0.4,0.9l0,0l-4.4,6.5l0,0c-0.4,0.4-0.4,0.4-0.9,0.4
			c-0.4,0-0.4,0-0.9-0.4l0,0c-3.1-2.6-6.5-4.4-10-5.1v10.9c8.2,2.1,17.4,5.1,17.4,16C-27.6,401.4-33.4,408.3-45.1,409.6z"/>
	</g>
</g>
</svg>
